<svg class="default" xmlns="http://www.w3.org/2000/svg" viewBox="0 0 236.08 50.08"><defs><style>.a{fill:#202021;}.b{fill:#fff;}.c{fill:#e9453a;}</style></defs><title>logo</title><path class="a" d="M63,32.11A9.89,9.89,0,0,1,60,25,10,10,0,0,1,70,15a10.52,10.52,0,0,1,5.83,1.9h0a1.14,1.14,0,0,1,.7,1,0.81,0.81,0,0,1-.14.45l-1.51,2.6a0.75,0.75,0,0,1-.63.39,1.19,1.19,0,0,1-.63-0.25A6.22,6.22,0,0,0,70,19.83a4.55,4.55,0,0,0-3.48,1.56,5.52,5.52,0,0,0-1.39,3.71,5.08,5.08,0,0,0,1.39,3.64,4.62,4.62,0,0,0,3.34,1.39,6.43,6.43,0,0,0,1.84-.29,19.94,19.94,0,0,0,2-.82,1.09,1.09,0,0,1,.55-0.2,0.88,0.88,0,0,1,.59.45l1.68,2.43a1.09,1.09,0,0,1,.16.41A1.07,1.07,0,0,1,76,33a10.69,10.69,0,0,1-6,2A10,10,0,0,1,63,32.11Z"/><path class="a" d="M81.56,32.11a9.89,9.89,0,0,1-3-7.06A10,10,0,0,1,88.74,15a10.18,10.18,0,0,1,7.18,2.93,10.06,10.06,0,0,1,3,7.12,9.74,9.74,0,0,1-3,7.06A10.34,10.34,0,0,1,81.56,32.11Zm10.71-3.44a5.26,5.26,0,0,0,1.43-3.6,5.37,5.37,0,0,0-1.43-3.6,4.8,4.8,0,0,0-3.52-1.52,4.69,4.69,0,0,0-3.5,1.52,5.37,5.37,0,0,0-1.43,3.6,5.26,5.26,0,0,0,1.43,3.6A4.84,4.84,0,0,0,92.28,28.67Z"/><path class="a" d="M103.42,34.59a0.85,0.85,0,0,1-.94-1V16.29a0.78,0.78,0,0,1,.9-0.88h8.45a6.18,6.18,0,0,1,4.5,1.92,6.78,6.78,0,0,1,1.8,4.58,6.6,6.6,0,0,1-2.83,5.38l2.87,6.12a1.08,1.08,0,0,1,.12.43,0.8,0.8,0,0,1-.74.74c-0.43,0-1,0-1.78,0H114a1.61,1.61,0,0,1-1.45-1l-2.17-5.28h-2.6v5.38a0.86,0.86,0,0,1-.92.9h-3.4Zm6.75-10.69a2.84,2.84,0,0,0,1.72-.49,1.78,1.78,0,0,0,.74-1.51,1.9,1.9,0,0,0-.72-1.6,2.79,2.79,0,0,0-1.74-.51h-2.43V23.9h2.43Z"/><path class="a" d="M123.5,34.59a0.86,0.86,0,0,1-1-1V16.29a0.8,0.8,0,0,1,.92-0.88h7.74a6.05,6.05,0,0,1,4.5,2,7.18,7.18,0,0,1,1.8,4.67,7,7,0,0,1-1.76,4.58,6,6,0,0,1-4.44,2h-3.48v5a0.84,0.84,0,0,1-.92.9h-3.4ZM130,24.09a2,2,0,0,0,1.43-.61A1.91,1.91,0,0,0,132,22.1a2.1,2.1,0,0,0-.59-1.49A1.9,1.9,0,0,0,130,20h-2.15v4.11H130Z"/><path class="a" d="M142.89,32.11a9.88,9.88,0,0,1-3-7.06,10,10,0,0,1,10.13-10,10.18,10.18,0,0,1,7.17,2.93,10.06,10.06,0,0,1,3,7.12,9.74,9.74,0,0,1-3,7.06A10.34,10.34,0,0,1,142.89,32.11Zm10.71-3.44a5.26,5.26,0,0,0,1.43-3.6,5.37,5.37,0,0,0-1.43-3.6,4.8,4.8,0,0,0-3.52-1.52,4.69,4.69,0,0,0-3.5,1.52,5.37,5.37,0,0,0-1.43,3.6,5.26,5.26,0,0,0,1.43,3.6A4.84,4.84,0,0,0,153.61,28.67Z"/><path class="a" d="M164.75,34.59a0.85,0.85,0,0,1-.94-1V16.29a0.78,0.78,0,0,1,.9-0.88h8.45a6.18,6.18,0,0,1,4.5,1.92,6.78,6.78,0,0,1,1.8,4.58,6.6,6.6,0,0,1-2.83,5.38l2.87,6.12a1.08,1.08,0,0,1,.12.43,0.8,0.8,0,0,1-.74.74c-0.43,0-1,0-1.78,0h-1.8a1.61,1.61,0,0,1-1.45-1l-2.17-5.28h-2.6v5.38a0.86,0.86,0,0,1-.92.9h-3.4Zm6.75-10.69a2.84,2.84,0,0,0,1.72-.49A1.78,1.78,0,0,0,174,21.9a1.9,1.9,0,0,0-.72-1.6,2.79,2.79,0,0,0-1.74-.51h-2.43V23.9h2.43Z"/><path class="a" d="M201.64,33.71a1.17,1.17,0,0,1,.08.41,0.47,0.47,0,0,1-.59.47H197c-0.61,0-.92-0.53-1.21-1.33l-0.55-1.64h-6.73c-0.31,1-.59,1.72-0.8,2.33a0.92,0.92,0,0,1-.92.65h-4.14a0.47,0.47,0,0,1-.59-0.47,0.75,0.75,0,0,1,0-.25,0.63,0.63,0,0,1,0-.14L189,16a0.9,0.9,0,0,1,.92-0.61h3.91a0.92,0.92,0,0,1,.63.2,0.87,0.87,0,0,1,.16.22,0.79,0.79,0,0,0,.14.25q3,7.83,6.88,17.65h0Zm-7.82-6.37-1.92-5.45-0.27.72-0.7,2-0.76,2.15-0.22.59h3.87Z"/><path class="a" d="M208.22,34.59a0.79,0.79,0,0,1-.9-0.9V20.3h-4.09a0.68,0.68,0,0,1-.72-0.8V16.15a0.65,0.65,0,0,1,.72-0.74h13.84a0.65,0.65,0,0,1,.72.74V19.5a0.78,0.78,0,0,1-.72.8H213V33.69a0.82,0.82,0,0,1-1,.9h-3.77Z"/><path class="a" d="M222.12,34.59a0.78,0.78,0,0,1-.76-0.9V16.33a0.8,0.8,0,0,1,.9-0.92h12.47a0.87,0.87,0,0,1,.92.92V19a0.86,0.86,0,0,1-.92.94h-8.11v2.91H233a0.86,0.86,0,0,1,.9,1v2.37a0.86,0.86,0,0,1-.9.92h-6.41v2.83h8.54a0.89,0.89,0,0,1,.92,1v2.78a0.86,0.86,0,0,1-.92.9h-13Z"/><path class="b" d="M41.46,43.77a15.07,15.07,0,0,1,3-.3A15.07,15.07,0,0,0,41.46,43.77Z"/><path class="b" d="M38.64,44.64a14.88,14.88,0,0,1,2.82-.87A14.88,14.88,0,0,0,38.64,44.64Z"/><path class="b" d="M34.94,46.89A15.08,15.08,0,0,0,32,50.08,15.08,15.08,0,0,1,34.94,46.89Z"/><circle class="c" cx="25" cy="25" r="25"/><path class="b" d="M25,33a8,8,0,1,1,5.79-13.5l5-5A15,15,0,0,0,24.13,10,15,15,0,0,0,25,40a15,15,0,0,0,10.74-4.55l-5-5A8,8,0,0,1,25,33Z"/></svg>