<?xml version="1.0" encoding="UTF-8"?>
<svg xmlns="http://www.w3.org/2000/svg" xmlns:xlink="http://www.w3.org/1999/xlink" width="20pt" height="20pt" viewBox="0 0 20 20" version="1.1">
<g id="surface1">
<path style=" stroke:none;fill-rule:nonzero;fill:rgb(12.941176%,12.941176%,12.941176%);fill-opacity:1;" d="M 5.625 9.375 L 5.625 10.625 L 4.375 10.625 L 4.375 9.375 L 5.625 9.375 M 6.875 8.125 L 3.125 8.125 L 3.125 11.875 L 6.875 11.875 Z "/>
<path style=" stroke:none;fill-rule:nonzero;fill:rgb(12.941176%,12.941176%,12.941176%);fill-opacity:1;" d="M 10.625 14.375 L 10.625 15.625 L 9.375 15.625 L 9.375 14.375 L 10.625 14.375 M 11.875 13.125 L 8.125 13.125 L 8.125 16.875 L 11.875 16.875 Z "/>
<path style=" stroke:none;fill-rule:nonzero;fill:rgb(12.941176%,12.941176%,12.941176%);fill-opacity:1;" d="M 10.625 9.375 L 10.625 10.625 L 9.375 10.625 L 9.375 9.375 L 10.625 9.375 M 11.875 8.125 L 8.125 8.125 L 8.125 11.875 L 11.875 11.875 Z "/>
<path style=" stroke:none;fill-rule:nonzero;fill:rgb(12.941176%,12.941176%,12.941176%);fill-opacity:1;" d="M 15.625 4.375 L 15.625 5.625 L 14.375 5.625 L 14.375 4.375 L 15.625 4.375 M 16.875 3.125 L 13.125 3.125 L 13.125 6.875 L 16.875 6.875 Z "/>
<path style=" stroke:none;fill-rule:nonzero;fill:rgb(12.941176%,12.941176%,12.941176%);fill-opacity:1;" d="M 15.625 9.375 L 15.625 10.625 L 14.375 10.625 L 14.375 9.375 L 15.625 9.375 M 16.875 8.125 L 13.125 8.125 L 13.125 11.875 L 16.875 11.875 Z "/>
<path style=" stroke:none;fill-rule:nonzero;fill:rgb(12.941176%,12.941176%,12.941176%);fill-opacity:1;" d="M 15.625 14.375 L 15.625 15.625 L 14.375 15.625 L 14.375 14.375 L 15.625 14.375 M 16.875 13.125 L 13.125 13.125 L 13.125 16.875 L 16.875 16.875 Z "/>
<path style=" stroke:none;fill-rule:nonzero;fill:rgb(12.941176%,12.941176%,12.941176%);fill-opacity:1;" d="M 5.625 14.375 L 5.625 15.625 L 4.375 15.625 L 4.375 14.375 L 5.625 14.375 M 6.875 13.125 L 3.125 13.125 L 3.125 16.875 L 6.875 16.875 Z "/>
<path style=" stroke:none;fill-rule:nonzero;fill:rgb(12.941176%,12.941176%,12.941176%);fill-opacity:1;" d="M 10.625 4.375 L 10.625 5.625 L 9.375 5.625 L 9.375 4.375 L 10.625 4.375 M 11.875 3.125 L 8.125 3.125 L 8.125 6.875 L 11.875 6.875 Z "/>
<path style="fill:none;stroke-width:2;stroke-linecap:butt;stroke-linejoin:miter;stroke:rgb(12.941176%,12.941176%,12.941176%);stroke-opacity:1;stroke-miterlimit:10;" d="M 6 6 L 10 6 L 10 10 L 6 10 Z " transform="matrix(0.625,0,0,0.625,0,0)"/>
</g>
</svg>
